<?xml version="1.0" encoding="utf-8"?>
<!-- Generator: Adobe Illustrator 16.0.0, SVG Export Plug-In . SVG Version: 6.00 Build 0)  -->
<!DOCTYPE svg PUBLIC "-//W3C//DTD SVG 1.1//EN" "http://www.w3.org/Graphics/SVG/1.1/DTD/svg11.dtd">
<svg version="1.1" id="Layer_1" xmlns="http://www.w3.org/2000/svg" xmlns:xlink="http://www.w3.org/1999/xlink" x="0px" y="0px"
	 width="150.699px" height="82.634px" viewBox="0 0 150.699 82.634" enable-background="new 0 0 150.699 82.634"
	 xml:space="preserve">
<g>
	<g>
		<g>
			<circle fill="#E1337A" cx="94.459" cy="17.901" r="12.47"/>
		</g>
	</g>
	<g>
		<g>
			<path fill="#F491AC" d="M94.707,28.341c-5.755,0-10.441-4.685-10.441-10.441S88.952,7.46,94.707,7.46
				c5.758,0,10.441,4.683,10.441,10.439S100.465,28.341,94.707,28.341z M109.208,17.9c0-7.994-6.507-14.496-14.501-14.496
				c-7.995,0-14.494,6.502-14.494,14.496c0,7.995,6.499,14.498,14.494,14.498C102.701,32.398,109.208,25.895,109.208,17.9z"/>
		</g>
	</g>
	<g>
		<g>
			<circle fill="#FBB674" cx="133.002" cy="17.901" r="12.47"/>
		</g>
	</g>
	<g>
		<g>
			<path fill="#F68B1F" d="M133.248,28.341c-5.756,0-10.439-4.685-10.439-10.441S127.492,7.46,133.248,7.46
				c5.76,0,10.443,4.683,10.443,10.439S139.008,28.341,133.248,28.341z M147.747,17.9c0-7.994-6.504-14.496-14.499-14.496
				c-7.989,0-14.496,6.502-14.496,14.496c0,7.995,6.507,14.498,14.496,14.498C141.243,32.398,147.747,25.895,147.747,17.9z"/>
		</g>
	</g>
	<g>
		<g>
			<path fill="#87BEE2" d="M17.12,30.373c-6.89,0-12.473-5.585-12.473-12.474c0-6.886,5.583-12.469,12.473-12.469
				c6.886,0,12.472,5.583,12.472,12.469C29.592,24.788,24.005,30.373,17.12,30.373z"/>
		</g>
	</g>
	<g>
		<g>
			<path fill="#28A1D4" d="M17.369,28.342c-5.76,0-10.445-4.685-10.445-10.443c0-5.756,4.685-10.44,10.445-10.44
				c5.758,0,10.441,4.685,10.441,10.44C27.811,23.658,23.127,28.342,17.369,28.342z M31.866,17.899
				c0-7.993-6.504-14.498-14.497-14.498S2.87,9.906,2.87,17.899c0,7.997,6.506,14.501,14.499,14.501S31.866,25.896,31.866,17.899z"
				/>
		</g>
	</g>
	<g>
		<g>
			<path fill="#C8DF89" d="M55.707,30.371c-6.884,0-12.469-5.583-12.469-12.471c0-6.886,5.584-12.469,12.469-12.469
				c6.89,0,12.471,5.583,12.471,12.469C68.178,24.788,62.597,30.371,55.707,30.371z"/>
		</g>
	</g>
	<g>
		<g>
			<path fill="#A6CE39" d="M55.958,28.341c-5.756,0-10.444-4.685-10.444-10.441S50.202,7.46,55.958,7.46
				c5.755,0,10.441,4.683,10.441,10.439S61.713,28.341,55.958,28.341z M70.456,17.9c0-7.994-6.507-14.497-14.498-14.497
				c-7.995,0-14.496,6.503-14.496,14.497c0,7.995,6.501,14.498,14.496,14.498C63.949,32.398,70.456,25.895,70.456,17.9z"/>
		</g>
	</g>
	<g>
		<path fill="#E1337A" d="M17.937,63.204c1.006,0,1.748-0.424,2.118-0.715l1.193,2.463c-0.533,0.423-1.748,1.031-3.47,1.031
			c-2.698,0-4.867-0.98-7.537-4.443c-4.79-0.793-7.409-4.709-7.409-8.969c0-4.789,3.2-9.152,9.102-9.152
			c5.899,0,9.071,4.312,9.071,9.047c0,4.074-2.22,7.855-6.507,8.912C15.53,62.704,16.431,63.204,17.937,63.204z M12.014,46.432
			c-3.548,0-5.211,2.753-5.211,6.033c0,3.307,1.611,6.188,5.131,6.188c3.545,0,5.133-2.802,5.133-6.082
			C17.067,49.292,15.53,46.432,12.014,46.432z"/>
		<path fill="#E1337A" d="M31.221,61.674c-5.106,0-7.515-2.543-7.515-7.146V43.735h3.73v10.475c0,3.02,1.085,4.395,3.865,4.395
			c2.617,0,3.701-1.59,3.701-4.154V43.735h3.439v10.449C38.44,58.998,36.037,61.674,31.221,61.674z"/>
		<path fill="#E1337A" d="M41.45,61.354V43.735h10.157v3.068h-6.48v3.969h5.713v2.912h-5.713v4.6h6.665v3.07H41.45z"/>
		<path fill="#E1337A" d="M64.723,61.354l-3.23-5.025c-1.376-2.038-1.667-2.224-2.486-2.224H58.77v7.249h-3.73V43.735h5.874
			c4.125,0,6.508,1.772,6.508,5.076c0,2.889-1.958,4.34-4.1,4.738v0.053c0.474,0.344,1.111,1.033,2.061,2.512l3.442,5.24H64.723z
			 M60.649,46.592H58.77v4.867h2.038c1.981,0,2.91-0.9,2.91-2.433C63.718,47.411,62.789,46.592,60.649,46.592z"/>
		<path fill="#E1337A" d="M71.236,61.354V43.735h10.159v3.068h-6.484v3.969h5.717v2.912h-5.717v4.6h6.667v3.07H71.236z
			 M76.287,38.735h4.551l-3.703,3.572h-3.043L76.287,38.735z"/>
		<path fill="#E1337A" d="M92.129,46.803v14.551h-3.76V46.803h-4.865v-3.068H96.97v3.068H92.129z"/>
		<path fill="#E1337A" d="M99.798,61.354h-3.756l6.723-17.619h3.597l6.904,17.619h-4.074l-1.193-3.307h-7.031L99.798,61.354z
			 M105.436,50.853c-0.553-1.511-0.949-3.044-0.949-3.044h-0.056c0,0-0.398,1.56-0.927,3.044l-1.48,4.204h4.919L105.436,50.853z"/>
		<path fill="#E1337A" d="M124.49,61.354l-3.225-5.025c-1.377-2.038-1.668-2.224-2.486-2.224h-0.241v7.249h-3.731V43.735h5.876
			c4.128,0,6.507,1.772,6.507,5.076c0,2.889-1.959,4.34-4.102,4.738v0.053c0.477,0.344,1.112,1.033,2.064,2.512l3.436,5.24H124.49z
			 M120.42,46.592h-1.882v4.867h2.038c1.985,0,2.91-0.9,2.91-2.433C123.486,47.411,122.562,46.592,120.42,46.592z"/>
		<path fill="#E1337A" d="M138.871,61.674c-5.896,0-9.178-4.342-9.178-9.104c0-4.789,3.199-9.152,9.098-9.152
			c5.901,0,9.076,4.312,9.076,9.047C147.867,57.251,144.77,61.674,138.871,61.674z M138.871,46.432
			c-3.545,0-5.212,2.753-5.212,6.033c0,3.307,1.613,6.188,5.132,6.188c3.545,0,5.131-2.802,5.131-6.082
			C143.922,49.292,142.393,46.432,138.871,46.432z"/>
	</g>
	<g>
		<path fill="#28A1D4" d="M3.63,70.819h4.765v1.439h-3.04v1.861h2.68v1.365h-2.68v2.16h3.126v1.438H3.63V70.819z"/>
		<path fill="#28A1D4" d="M12.03,74.84l-2.494-4.021h1.985l1.563,2.582l1.464-2.582h1.762l-2.382,3.996l2.655,4.269h-1.984
			l-1.738-2.854l-1.675,2.854H9.411L12.03,74.84z"/>
		<path fill="#28A1D4" d="M17.823,70.819h2.718c1.799,0,3.164,0.832,3.164,2.606c0,1.799-1.304,2.718-3.363,2.718h-0.757v2.94
			h-1.762V70.819z M20.366,74.815c1.104,0,1.576-0.447,1.576-1.364c0-0.832-0.459-1.292-1.538-1.292h-0.82v2.656H20.366z"/>
		<path fill="#28A1D4" d="M25.179,70.819h4.765v1.439h-3.039v1.861h2.68v1.365h-2.68v2.16h3.127v1.438h-4.853V70.819z"/>
		<path fill="#28A1D4" d="M31.754,70.819h2.755c1.936,0,3.053,0.832,3.053,2.383c0,1.354-0.918,2.035-1.923,2.221v0.025
			c0.223,0.161,0.52,0.484,0.967,1.18l1.613,2.456h-1.923l-1.514-2.358c-0.646-0.954-0.782-1.041-1.167-1.041h-0.111v3.399h-1.75
			V70.819z M34.459,74.442c0.931,0,1.365-0.421,1.365-1.141c0-0.757-0.434-1.143-1.44-1.143h-0.88v2.283H34.459z"/>
		<path fill="#28A1D4" d="M39.521,70.819h1.749v8.265h-1.749V70.819z"/>
		<path fill="#28A1D4" d="M43.465,70.819h4.765v1.439h-3.04v1.861h2.68v1.365h-2.68v2.16h3.126v1.438h-4.852V70.819z"/>
		<path fill="#28A1D4" d="M50.028,70.819h1.762l2.978,4.281c0.497,0.707,0.794,1.254,0.869,1.39h0.024
			c-0.013-0.111-0.049-0.669-0.049-1.303v-4.368h1.587v8.265h-1.601l-3.213-4.592c-0.447-0.62-0.694-1.079-0.794-1.239h-0.024
			c0.012,0.111,0.05,0.582,0.05,1.104v4.728h-1.588V70.819z"/>
		<path fill="#28A1D4" d="M58.749,74.938c0-2.244,1.477-4.268,4.269-4.268c1.08,0,1.836,0.236,2.481,0.658l-0.782,1.277
			c-0.459-0.297-0.967-0.483-1.726-0.483c-1.55,0-2.381,1.241-2.381,2.767c0,1.576,0.793,2.879,2.407,2.879
			c0.893,0,1.438-0.311,1.874-0.633l0.719,1.229c-0.421,0.385-1.414,0.869-2.619,0.869C60.176,79.233,58.749,77.185,58.749,74.938z"
			/>
		<path fill="#28A1D4" d="M66.986,70.819h1.75v8.265h-1.75V70.819z"/>
		<path fill="#28A1D4" d="M73.238,70.819h1.689l3.237,8.265h-1.91l-0.558-1.551h-3.3l-0.546,1.551h-1.762L73.238,70.819z
			 M75.2,76.13l-0.707-1.974c-0.261-0.706-0.373-1.24-0.447-1.427h-0.025c-0.062,0.199-0.198,0.758-0.434,1.427L72.88,76.13H75.2z"
			/>
		<path fill="#28A1D4" d="M78.721,78.414l0.746-1.216c0.186,0.137,0.818,0.619,1.773,0.619c0.832,0,1.316-0.421,1.316-0.955
			c0-0.731-0.882-0.942-1.85-1.426c-1.017-0.498-1.774-1.129-1.774-2.469c0-1.416,1.192-2.297,2.668-2.297
			c1.353,0,2.071,0.435,2.42,0.695l-0.708,1.229c-0.283-0.186-0.904-0.51-1.613-0.51c-0.67,0-1.104,0.299-1.104,0.856
			c0,0.646,0.659,0.856,1.528,1.253c1.091,0.496,2.121,1.057,2.121,2.581c0,1.501-1.13,2.458-2.966,2.458
			C79.938,79.233,79.081,78.711,78.721,78.414z"/>
		<path fill="#A6CE39" d="M87.529,78.414l0.744-1.216c0.187,0.137,0.819,0.619,1.775,0.619c0.832,0,1.315-0.421,1.315-0.955
			c0-0.731-0.882-0.942-1.849-1.426c-1.018-0.498-1.775-1.129-1.775-2.469c0-1.416,1.192-2.297,2.668-2.297
			c1.352,0,2.072,0.435,2.42,0.695l-0.707,1.229c-0.287-0.186-0.907-0.51-1.613-0.51c-0.671,0-1.104,0.299-1.104,0.856
			c0,0.646,0.658,0.856,1.526,1.253c1.092,0.496,2.122,1.057,2.122,2.581c0,1.501-1.13,2.458-2.966,2.458
			C88.746,79.233,87.889,78.711,87.529,78.414z"/>
		<path fill="#A6CE39" d="M94.649,70.819h1.75v8.265h-1.75V70.819z"/>
		<path fill="#A6CE39" d="M98.584,70.819h1.762l2.977,4.281c0.497,0.707,0.794,1.254,0.87,1.39h0.022
			c-0.012-0.111-0.049-0.669-0.049-1.303v-4.368h1.588v8.265h-1.6l-3.214-4.592c-0.446-0.62-0.694-1.079-0.795-1.239h-0.024
			c0.014,0.111,0.049,0.582,0.049,1.104v4.728h-1.586V70.819z"/>
		<path fill="#A6CE39" d="M110.231,70.819h1.761v6.85h3.078v1.415h-4.839V70.819z"/>
		<path fill="#A6CE39" d="M116.657,70.819h1.75v8.265h-1.75V70.819z M117.75,68.511h2.135l-1.738,1.675h-1.426L117.75,68.511z"/>
		<path fill="#A6CE39" d="M121.224,70.819h1.699l1.662,5.101c0.198,0.596,0.349,1.191,0.423,1.427h0.025
			c0.061-0.223,0.235-0.831,0.434-1.427l1.713-5.101h1.688l1.141,8.265h-1.787l-0.533-4.269c-0.074-0.607-0.124-1.043-0.136-1.203
			h-0.026c-0.036,0.186-0.16,0.632-0.334,1.178l-1.402,4.294h-1.726l-1.401-4.281c-0.16-0.521-0.286-1.017-0.334-1.19h-0.024
			c-0.013,0.186-0.052,0.67-0.112,1.215l-0.535,4.257h-1.574L121.224,70.819z"/>
		<path fill="#A6CE39" d="M131.62,70.819h1.749v8.265h-1.749V70.819z"/>
		<path fill="#A6CE39" d="M136.99,72.258h-2.283v-1.439h6.316v1.439h-2.271v6.825h-1.762V72.258z"/>
		<path fill="#A6CE39" d="M142.227,70.819h4.764v1.439h-3.041v1.861h2.682v1.365h-2.682v2.16h3.127v1.438h-4.85V70.819z"/>
	</g>
</g>
</svg>
