<svg height="512pt" viewBox="0 0 512 512" width="512pt" xmlns="http://www.w3.org/2000/svg"><path d="m512 256c0 141.386719-114.613281 256-256 256s-256-114.613281-256-256 114.613281-256 256-256 256 114.613281 256 256zm0 0" fill="#dde8ed"/><path d="m306.910156 449.578125v57.351563c-16.457031 3.324218-33.476562 5.070312-50.90625 5.070312-79.015625 0-149.660156-35.800781-196.621094-92.054688 9.929688-30.347656 34.714844-53.960937 65.769532-62.265624 1.480468-.398438 2.976562-.765626 4.492187-1.089844 4.03125-.875 8.171875-1.480469 12.382813-1.828125 2.570312-.207031 5.160156-.3125 7.78125-.3125h61.953125c6.929687 0 13.679687.730469 20.175781 2.140625.378906.074218.753906.15625 1.121094.242187 1.097656.25 2.191406.523438 3.269531.816407.03125.007812.050781.007812.082031.019531 10.710938 2.863281 20.679688 7.554687 29.539063 13.707031 24.753906 17.179688 40.960937 45.800781 40.960937 78.203125zm0 0" fill="#66baed"/><path d="m236.640625 356.589844-.230469 1.078125-32.054687 149.105469c-.378907-.070313-.742188-.15625-1.109375-.230469-3.386719-.699219-6.738282-1.472657-10.0625-2.316407-9.414063-2.375-18.621094-5.269531-27.574219-8.652343-1.359375-.511719-2.707031-1.035157-4.054687-1.570313-2.621094-1.042968-5.222657-2.121094-7.792969-3.238281l-28.609375-133.085937-.230469-1.089844zm0 0" fill="#dde8ed"/><path d="m206.328125 388.773438-25.539063 40.960937-25.535156-40.960937" fill="#f74f4f"/><path d="m203.246094 506.542969c-3.386719-.699219-6.738282-1.472657-10.0625-2.316407-9.414063-2.375-18.621094-5.269531-27.574219-8.652343-1.359375-.511719-2.707031-1.035157-4.054687-1.570313l19.238281-74.925781zm0 0" fill="#f74f4f"/><path d="m180.78125 393.394531-42.828125 23.800781-13.03125-60.601562 26.613281-15.675781" fill="#bfd5de"/><path d="m180.78125 393.394531 42.832031 23.800781 13.027344-60.601562-26.613281-15.675781" fill="#bfd5de"/><path d="m238.261719 438.375h13.582031l-28.839844 70.15625c-1.535156.25-3.082031.488281-4.628906.71875-8.546875-1.253906-16.945312-2.933594-25.191406-5.023438l43.457031-152.859374 29.308594 14.785156zm0 0" fill="#2ba1cf"/><path d="m165.609375 495.574219c-14.253906-5.371094-27.890625-11.984375-40.792969-19.699219l-15.414062-37.5h13.585937l-27.691406-72.222656 29.625-13.730469zm0 0" fill="#2ba1cf"/><path d="m214.730469 317.800781v41.65625c0 15.25-10.054688 28.140625-23.90625 32.421875-3.167969.980469-6.546875 1.515625-10.042969 1.515625-18.742188 0-33.9375-15.195312-33.9375-33.9375v-41.65625zm0 0" fill="#eab599"/><path d="m214.730469 356.816406v2.640625c0 15.25-10.054688 28.140625-23.90625 32.421875-12.496094-3.84375-21.890625-14.707031-23.625-28.003906 2.265625.140625 4.546875.210938 6.835937.210938 6.421875 0 12.71875-.511719 18.851563-1.519532 7.554687-1.210937 14.855469-3.15625 21.84375-5.75zm0 0" fill="#f6caae"/><path d="m87.679688 249.53125c0 15.714844-11.480469 28.742188-26.511719 31.160156-1.640625.269532-3.332031.40625-5.054688.40625-17.4375 0-31.566406-14.128906-31.566406-31.566406 0-17.433594 14.128906-31.5625 31.566406-31.5625 1.722657 0 3.414063.136719 5.054688.40625 15.03125 2.417969 26.511719 15.445312 26.511719 31.15625zm0 0" fill="#f6caae"/><path d="m87.679688 249.53125c0 15.714844-11.480469 28.742188-26.511719 31.160156-2.730469-9.925781-4.1875-20.375-4.1875-31.160156 0-10.78125 1.457031-21.230469 4.1875-31.15625 15.03125 2.417969 26.511719 15.445312 26.511719 31.15625zm0 0" fill="#eab599"/><path d="m67.394531 249.53125c0 6.234375-5.050781 11.285156-11.28125 11.285156s-11.28125-5.050781-11.28125-11.285156c0-6.230469 5.050781-11.28125 11.28125-11.28125s11.28125 5.050781 11.28125 11.28125zm0 0" fill="#eab599"/><path d="m273.894531 249.53125c0 15.714844 11.480469 28.742188 26.507813 31.160156 1.644531.269532 3.332031.40625 5.058594.40625 17.4375 0 31.566406-14.128906 31.566406-31.566406 0-17.433594-14.128906-31.5625-31.566406-31.5625-1.726563 0-3.414063.136719-5.058594.40625-15.027344 2.417969-26.507813 15.445312-26.507813 31.15625zm0 0" fill="#f6caae"/><g fill="#eab599"><path d="m273.894531 249.53125c0 15.714844 11.480469 28.742188 26.507813 31.160156 2.730468-9.925781 4.191406-20.375 4.191406-31.160156 0-10.78125-1.457031-21.230469-4.191406-31.15625-15.027344 2.417969-26.507813 15.445312-26.507813 31.15625zm0 0"/><path d="m298.226562 188.039062v44.722657c0 58.441406-42.695312 106.921875-98.59375 115.917969-.191406.03125-.386718.0625-.578124.097656-5.945313.949218-12.046876 1.417968-18.273438 1.417968-64.855469 0-117.4375-52.578124-117.4375-117.433593v-44.933594c.023438-13.582031 2.351562-26.632813 6.636719-38.765625 16.058593-45.703125 59.609375-78.46875 110.800781-78.46875h.011719c6.214843 0 12.328125.480469 18.285156 1.417969 56.171875 8.777343 99.148437 57.386719 99.148437 116.027343zm0 0"/><path d="m316.742188 249.53125c0 6.234375-5.050782 11.285156-11.28125 11.285156-6.230469 0-11.28125-5.050781-11.28125-11.285156 0-6.230469 5.050781-11.28125 11.28125-11.28125 6.230468 0 11.28125 5.050781 11.28125 11.28125zm0 0"/></g><path d="m298.230469 188.039062v44.722657c0 58.441406-42.695313 106.921875-98.597657 115.917969-.1875.03125-.386718.0625-.574218.097656-56.175782-8.777344-99.140625-57.386719-99.140625-116.015625v-44.722657c0-58.640624 42.976562-107.25 99.160156-116.027343 56.175781 8.777343 99.152344 57.386719 99.152344 116.027343zm0 0" fill="#f6caae"/><path d="m155.777344 220.695312c0 7.359376-5.964844 13.324219-13.324219 13.324219-7.355469 0-13.320313-5.964843-13.320313-13.324219 0-7.355468 5.964844-13.320312 13.320313-13.320312 7.359375 0 13.324219 5.964844 13.324219 13.320312zm0 0" fill="#3d4159"/><path d="m232.445312 220.695312c0 7.359376-5.964843 13.324219-13.324218 13.324219-7.355469 0-13.320313-5.964843-13.320313-13.324219 0-7.355468 5.964844-13.320312 13.320313-13.320312 7.359375 0 13.324218 5.964844 13.324218 13.320312zm0 0" fill="#3d4159"/><path d="m153.058594 218.34375c0 3.152344-2.554688 5.710938-5.707032 5.710938-3.152343 0-5.707031-2.558594-5.707031-5.710938s2.554688-5.707031 5.707031-5.707031c3.152344 0 5.707032 2.554687 5.707032 5.707031zm0 0" fill="#fff"/><path d="m230.382812 218.34375c0 3.152344-2.554687 5.710938-5.707031 5.710938-3.15625 0-5.710937-2.558594-5.710937-5.710938s2.554687-5.707031 5.710937-5.707031c3.152344 0 5.707031 2.554687 5.707031 5.707031zm0 0" fill="#fff"/><path d="m196.390625 256.328125h-29.117187c-3.175782 0-5.746094-2.570313-5.746094-5.746094s2.570312-5.746093 5.746094-5.746093h29.117187c3.171875 0 5.746094 2.570312 5.746094 5.746093s-2.574219 5.746094-5.746094 5.746094zm0 0" fill="#eab599"/><path d="m180.789062 290.601562c-9.835937 0-19.667968-2.464843-28.632812-7.394531-2.527344-1.386719-3.453125-4.566406-2.0625-7.09375 1.390625-2.527343 4.566406-3.449219 7.09375-2.0625 14.777344 8.125 32.421875 8.125 47.199219 0 2.527343-1.390625 5.703125-.46875 7.09375 2.0625 1.390625 2.527344.46875 5.707031-2.0625 7.09375-8.960938 4.929688-18.796875 7.394531-28.628907 7.394531zm0 0" fill="#eab599"/><path d="m298.230469 147.453125v45.808594h-21.859375v-35.871094l-157.78125-29.320313-33.382813-6.207031v71.398438h-21.859375v-45.808594c0-52.226563 42.328125-94.554687 94.542969-94.554687h45.796875c1.242188 0 2.488281.019531 3.730469.085937 50.480469 1.941406 90.8125 43.488281 90.8125 94.46875zm0 0" fill="#2a2f4f"/><path d="m298.230469 147.453125v45.808594h-21.859375v-35.871094l-157.78125-29.320313c8.695312-41.753906 44.921875-73.394531 88.828125-75.085937 50.480469 1.941406 90.8125 43.488281 90.8125 94.46875zm0 0" fill="#3d4159"/><path d="m278.730469 402.035156-13.53125.605469c-7.660157.332031-14.148438-5.589844-14.492188-13.261719l-1.945312-43.476562c-.082031-1.933594.230469-3.78125.878906-5.484375 1.890625-5.058594 6.644531-8.746094 12.382813-9.007813l13.519531-.605468 2.070312 46.203124zm0 0" fill="#2a2f4f"/><path d="m277.613281 377.007812-12.414062.554688c-7.660157.335938-14.148438-5.589844-14.492188-13.261719l-1.066406-23.882812c1.890625-5.058594 6.644531-8.746094 12.382813-9.007813l13.519531-.605468zm0 0" fill="#3d4159"/><path d="m348.398438 463.738281c17.980468-4.121093 31.394531-19.621093 32.703124-38.21875l-56.851562-67.089843-17.457031 83.121093zm0 0" fill="#3f4954"/><path d="m354.964844 492.167969c-13.824219 5.796875-28.253906 10.417969-43.183594 13.730469l-14.976562-61.523438-4.574219-19.792969 46.644531-2.078125 4.574219 19.78125zm0 0" fill="#f74f4f"/><path d="m343.449219 442.285156-46.648438 2.085938-4.570312-19.789063 14.132812-17.101562 32.515625 15.019531zm0 0" fill="#dd3033"/><path d="m457.761719 400.75c15.652343-8.101562 26.011719-24.777344 25.171875-43.535156-.835938-18.761719-12.644532-34.445313-28.957032-41.117188l-35.804687 38.132813zm0 0" fill="#ffe152"/><path d="m482.949219 357.707031c.640625 18.558594-9.671875 35.007813-25.1875 43.042969l-34.765625-40.847656 33.757812 18.332031c15.550782-4.78125 26.320313-10.203125 26.195313-20.527344zm0 0" fill="#e8c934"/><path d="m422.996094 359.902344-4.710938-3.089844 1.375-.832031zm0 0" fill="#489dcf"/><path d="m458.304688 412.878906c-6.96875 8.976563-14.511719 17.480469-22.601563 25.445313l-72.167969-16.929688-5.257812-117.445312 93.769531-31.054688zm0 0" fill="#f74f4f"/><path d="m458.304688 412.878906c-6.96875 8.976563-14.511719 17.480469-22.601563 25.445313l-72.167969-16.929688-2.089844-46.589843 95.3125 3.574218zm0 0" fill="#dd3033"/><path d="m358.28125 303.953125-71.304688 3.1875c-9.464843.425781-16.792968 8.4375-16.371093 17.902344l3.722656 83.171875c.421875 9.460937 8.4375 16.789062 17.898437 16.367187l71.308594-3.1875" fill="#ffe152"/><path d="m306.363281 407.480469c-9.460937.421875-17.476562-6.90625-17.902343-16.367188l-3.71875-83.171875c-.007813-.183594-.007813-.367187-.007813-.550781-8.351563 1.480469-14.515625 8.949219-14.128906 17.648437l3.722656 83.171876c.421875 9.464843 8.4375 16.792968 17.898437 16.371093l71.308594-3.191406-.734375-16.433594zm0 0" fill="#e8c934"/><path d="m288.765625 341.824219c-1.109375-1.011719-1.832031-2.453125-1.90625-4.074219-.144531-3.238281 2.367187-5.984375 5.609375-6.128906l37.566406-1.683594c3.242188-.144531 5.988282 2.367188 6.132813 5.609375.148437 3.242187-2.363281 5.988281-5.605469 6.132813l-37.566406 1.679687c-1.625.074219-3.121094-.519531-4.230469-1.535156zm0 0" fill="#2a2f4f"/><path d="m289.738281 363.550781c-1.109375-1.015625-1.832031-2.453125-1.90625-4.074219-.144531-3.242187 2.367188-5.988281 5.609375-6.132812l37.566406-1.679688c3.242188-.144531 5.988282 2.363282 6.132813 5.605469.144531 3.242188-2.363281 5.988281-5.605469 6.132813l-37.570312 1.679687c-1.621094.074219-3.117188-.519531-4.226563-1.53125zm0 0" fill="#2a2f4f"/><path d="m290.710938 385.273438c-1.109376-1.015626-1.835938-2.453126-1.90625-4.074219-.144532-3.242188 2.367187-5.988281 5.609374-6.132813l37.566407-1.679687c3.242187-.144531 5.988281 2.363281 6.132812 5.605469.144531 3.242187-2.367187 5.988281-5.609375 6.132812l-37.566406 1.679688c-1.621094.074218-3.121094-.515626-4.226562-1.53125zm0 0" fill="#2a2f4f"/><path d="m287.496094 40.070312h207.789062v156.191407h-207.789062zm0 0" fill="#f2f0ec"/><path d="m393.054688 186.5-22.3125 52.992188 97.621093-55.78125zm0 0" fill="#f2f0ec"/><path d="m367.875 119.960938c0 7.417968-6.011719 13.425781-13.429688 13.425781-7.414062 0-13.425781-6.007813-13.425781-13.425781 0-7.414063 6.011719-13.425782 13.425781-13.425782 7.417969 0 13.429688 6.011719 13.429688 13.425782zm0 0" fill="#3d4159"/><path d="m403.507812 119.960938c0 7.417968-6.011718 13.425781-13.425781 13.425781-7.417969 0-13.425781-6.007813-13.425781-13.425781 0-7.414063 6.007812-13.425782 13.425781-13.425782 7.414063 0 13.425781 6.011719 13.425781 13.425782zm0 0" fill="#3d4159"/><path d="m439.140625 119.960938c0 7.417968-6.007813 13.425781-13.425781 13.425781-7.414063 0-13.425782-6.007813-13.425782-13.425781 0-7.414063 6.011719-13.425782 13.425782-13.425782 7.417968 0 13.425781 6.011719 13.425781 13.425782zm0 0" fill="#3d4159"/></svg>