<?xml version="1.0" encoding="iso-8859-1"?>
<!-- Generator: Adobe Illustrator 19.0.0, SVG Export Plug-In . SVG Version: 6.00 Build 0)  -->
<svg version="1.1" id="Layer_1" xmlns="http://www.w3.org/2000/svg" xmlns:xlink="http://www.w3.org/1999/xlink" x="0px" y="0px"
	 viewBox="0 0 512 512" style="enable-background:new 0 0 512 512;" xml:space="preserve">
<g>
	<path style="fill:#099DD1;" d="M512,109.555v234.739c0,5.001-4.051,9.052-9.052,9.052H157.006c-5.001,0-9.052-4.051-9.052-9.052
		V109.555c0-2.648,1.143-5.035,2.953-6.698c1.607-1.46,3.745-2.354,6.099-2.354h345.942c2.342,0,4.481,0.883,6.087,2.342
		C510.857,104.509,512,106.896,512,109.555z"/>
	<path style="fill:#099DD1;" d="M509.035,102.845L368.753,213.607h-78.526l-139.321-110.75c1.607-1.46,3.745-2.354,6.099-2.354
		h345.942C505.29,100.503,507.429,101.386,509.035,102.845z"/>
</g>
<path style="fill:#00ABE0;" d="M474.893,167.711v234.734c0,4.999-4.053,9.052-9.052,9.052H119.897c-4.999,0-9.052-4.053-9.052-9.052
	V167.711c0-4.999,4.053-9.052,9.052-9.052h345.943C470.84,158.659,474.893,162.712,474.893,167.711z"/>
<path style="fill:#099DD1;" d="M474.887,167.714v22.143l-128.062,101.11c-4.322,3.417-9.663,5.284-15.173,5.284h-78.526
	c-5.533,0-10.919-1.89-15.241-5.318L110.841,189.936v-22.223c0-2.648,1.143-5.035,2.965-6.698c1.607-1.46,3.745-2.354,6.087-2.354
	h345.942c2.342,0,4.481,0.883,6.087,2.342C473.744,162.667,474.887,165.055,474.887,167.714z"/>
<path style="fill:#00ABE0;" d="M471.923,161.004L334.118,269.807c-1.598,1.262-3.573,1.947-5.609,1.947h-72.223
	c-2.046,0-4.032-0.692-5.633-1.965L113.805,161.015c1.607-1.46,3.745-2.354,6.087-2.354h345.942
	C468.177,158.662,470.316,159.544,471.923,161.004z"/>
<g>
	<path style="fill:#C1C1C1;" d="M70.002,228.26H34.706c-4.688,0-8.486-3.798-8.486-8.486s3.798-8.486,8.486-8.486h35.296
		c4.688,0,8.486,3.798,8.486,8.486S74.69,228.26,70.002,228.26z"/>
	<path style="fill:#C1C1C1;" d="M70.002,366.435H34.706c-4.688,0-8.486-3.798-8.486-8.486s3.798-8.486,8.486-8.486h35.296
		c4.688,0,8.486,3.798,8.486,8.486S74.69,366.435,70.002,366.435z"/>
	<path style="fill:#C1C1C1;" d="M70.002,275.393H8.486c-4.688,0-8.486-3.798-8.486-8.486s3.798-8.486,8.486-8.486h61.516
		c4.688,0,8.486,3.798,8.486,8.486S74.69,275.393,70.002,275.393z"/>
	<path style="fill:#C1C1C1;" d="M70.002,318.53H8.486c-4.688,0-8.486-3.798-8.486-8.486s3.798-8.486,8.486-8.486h61.516
		c4.688,0,8.486,3.798,8.486,8.486S74.69,318.53,70.002,318.53z"/>
</g>
<g>
	<path style="fill:#EFEFEF;" d="M178.32,374.191H154.66c-4.999,0-9.052-4.053-9.052-9.052v-23.579c0-4.999,4.053-9.052,9.052-9.052
		h23.659c4.999,0,9.052,4.053,9.052,9.052v23.579C187.372,370.138,183.319,374.191,178.32,374.191z"/>
	<path style="fill:#EFEFEF;" d="M262.332,344.201h-46.582c-4.688,0-8.486-3.798-8.486-8.486s3.798-8.486,8.486-8.486h46.582
		c4.688,0,8.486,3.798,8.486,8.486S267.018,344.201,262.332,344.201z"/>
	<path style="fill:#EFEFEF;" d="M314.267,374.986h-99.59c-4.688,0-8.486-3.798-8.486-8.486s3.798-8.486,8.486-8.486h99.59
		c4.688,0,8.486,3.798,8.486,8.486S318.955,374.986,314.267,374.986z"/>
	<path style="fill:#EFEFEF;" d="M401.474,370.796c-17.208,0-31.208-14-31.208-31.208s14-31.208,31.208-31.208
		s31.208,14,31.208,31.208c0,3.655-0.637,7.243-1.859,10.618l-7.425-11c-1.43-11.567-11.301-20.557-23.251-20.557
		c-12.928,0-23.447,10.518-23.447,23.447c0,12.93,10.518,23.448,23.447,23.448c6.265,0,11.951-2.485,16.161-6.502l7.842,11.618
		c1.469,2.174,3.858,3.547,6.477,3.719c2.601,0.173,5.165-0.874,6.908-2.838c7.814-8.814,12.118-20.162,12.118-31.952
		c0-26.566-21.614-48.18-48.18-48.18c-26.566,0-48.18,21.614-48.18,48.18s21.614,48.18,48.18,48.18c4.688,0,8.486-3.798,8.486-8.486
		S406.161,370.796,401.474,370.796z M400.147,348.57c-3.57,0-6.474-2.905-6.474-6.475c0-3.571,2.903-6.474,6.474-6.474
		c3.568,0,6.47,2.899,6.474,6.465c0,0,0,0.015,0,0.023C406.615,345.672,403.714,348.57,400.147,348.57z"/>
</g>
<g>
</g>
<g>
</g>
<g>
</g>
<g>
</g>
<g>
</g>
<g>
</g>
<g>
</g>
<g>
</g>
<g>
</g>
<g>
</g>
<g>
</g>
<g>
</g>
<g>
</g>
<g>
</g>
<g>
</g>
</svg>
