<?xml version="1.0" encoding="iso-8859-1"?>
<!-- Generator: Adobe Illustrator 19.0.0, SVG Export Plug-In . SVG Version: 6.00 Build 0)  -->
<svg version="1.1" id="Capa_1" xmlns="http://www.w3.org/2000/svg" xmlns:xlink="http://www.w3.org/1999/xlink" x="0px" y="0px"
	 viewBox="0 0 512 512" style="enable-background:new 0 0 512 512;" xml:space="preserve">
<path style="fill:#00AAF0;" d="M439.206,176.318l-80.224-58.35c-2.369-1.723-122.833-89.341-126.072-91.697
	c-5.876-4.273-13.837-4.273-19.713,0C190.982,42.43,33.645,156.866,6.901,176.318C2.565,179.471,0,184.509,0,189.87v282.307
	c0,9.255,7.502,16.757,16.757,16.757h412.592c9.254,0,16.757-7.502,16.757-16.757V189.87
	C446.106,184.509,443.541,179.471,439.206,176.318z"/>
<path style="fill:#009AEF;" d="M20.605,472.177V196.051c0-5.361,2.565-10.399,6.901-13.552
	c130.95-95.245,125.377-91.191,206.296-150.046c1.384-1.006,2.886-1.767,4.446-2.299l-5.338-3.882
	c-5.876-4.273-13.838-4.273-19.713,0C190.993,42.421,33.648,156.863,6.901,176.318C2.565,179.471,0,184.509,0,189.87v282.307
	c0,9.255,7.502,16.757,16.757,16.757h20.605C28.107,488.935,20.605,481.432,20.605,472.177z"/>
<path style="fill:#5BDDFC;" d="M214.659,325.119L16.757,488.934h412.591L231.447,325.119
	C226.577,321.087,219.529,321.087,214.659,325.119z"/>
<g>
	<path style="fill:#00C3FF;" d="M24.314,482.679l-7.557,6.255h20.599C32.082,488.932,27.384,486.489,24.314,482.679z"/>
	<path style="fill:#00C3FF;" d="M237.839,330.409l191.51,158.525c9.255,0,16.757-7.503,16.757-16.757V189.869L237.839,330.409z"/>
	<path style="fill:#00C3FF;" d="M0,189.869v282.307c0,9.255,7.503,16.757,16.757,16.757l191.51-158.525L0,189.869z"/>
</g>
<path style="fill:#00AAF0;" d="M20.605,203.774L0,189.87l0,0v282.307c0,9.254,7.502,16.757,16.757,16.757l7.557-6.255
	c-2.316-2.874-3.709-6.524-3.709-10.502V203.774z"/>
<path style="fill:#E4EAF8;" d="M302.012,152.657c0-32.276,14.576-61.138,37.492-80.398H83.171c-7.172,0-12.986,5.814-12.986,12.985
	v151.987l138.082,93.179l6.392-5.291c4.87-4.032,11.918-4.032,16.789,0l6.391,5.29l123.374-83.253
	C326.172,230.144,302.012,194.224,302.012,152.657z"/>
<path style="fill:#D8DCE5;" d="M90.79,72.259h-7.619c-7.171,0-12.985,5.814-12.985,12.985v151.987l20.605,13.904L90.79,72.259
	L90.79,72.259z"/>
<g>
	<path style="fill:#C3C8D1;" d="M302.012,160.383H124.069c-4.267,0-7.727-3.459-7.727-7.727s3.459-7.727,7.727-7.727h177.942
		c4.267,0,7.727,3.459,7.727,7.727C309.739,156.924,306.279,160.383,302.012,160.383z"/>
	<path style="fill:#C3C8D1;" d="M311.078,203.114H124.069c-4.267,0-7.727-3.459-7.727-7.727s3.459-7.727,7.727-7.727h187.008
		c4.267,0,7.727,3.459,7.727,7.727S315.345,203.114,311.078,203.114z"/>
	<path style="fill:#C3C8D1;" d="M324.834,245.845H124.069c-4.267,0-7.727-3.459-7.727-7.727s3.459-7.727,7.727-7.727h200.764
		c4.267,0,7.727,3.459,7.727,7.727S329.101,245.845,324.834,245.845z"/>
	<polygon style="fill:#C3C8D1;" points="322.734,273.122 123.373,273.122 146.273,288.576 299.833,288.576 	"/>
</g>
<circle style="fill:#7CE854;" cx="406.81" cy="152.661" r="105.19"/>
<path style="fill:#5EC62E;" d="M321.805,152.656c0-54.691,41.738-99.627,95.097-104.71c-3.324-0.317-6.691-0.485-10.098-0.485
	c-58.097,0-105.194,47.097-105.194,105.195c0,58.097,47.097,105.195,105.194,105.195c3.407,0,6.774-0.168,10.098-0.485
	C363.543,252.284,321.805,207.347,321.805,152.656z"/>
<path style="fill:#E4EAF8;" d="M386.044,194.097l-30.406-29.307c-6.297-6.07-6.482-16.095-0.412-22.392
	c6.071-6.299,16.096-6.481,22.393-0.412l18.368,17.704l37.205-43.043c5.72-6.616,15.721-7.346,22.337-1.625
	c6.618,5.719,7.345,15.72,1.626,22.337l-48.138,55.692C403.086,199.911,392.595,200.41,386.044,194.097z"/>
<path style="fill:#D8DCE5;" d="M405.962,184.178l-30.406-29.307c-4.567-4.402-5.902-10.88-3.984-16.512
	c-5.592-1.835-11.986-0.484-16.346,4.039c-6.07,6.297-5.885,16.322,0.412,22.392l30.406,29.307
	c6.542,6.305,17.034,5.822,22.971-1.046l4.232-4.896C410.535,187.501,408.011,186.152,405.962,184.178z"/>
<g>
</g>
<g>
</g>
<g>
</g>
<g>
</g>
<g>
</g>
<g>
</g>
<g>
</g>
<g>
</g>
<g>
</g>
<g>
</g>
<g>
</g>
<g>
</g>
<g>
</g>
<g>
</g>
<g>
</g>
</svg>
