<?xml version="1.0" encoding="iso-8859-1"?>
<!-- Generator: Adobe Illustrator 19.0.0, SVG Export Plug-In . SVG Version: 6.00 Build 0)  -->
<svg version="1.1" id="Capa_1" xmlns="http://www.w3.org/2000/svg" xmlns:xlink="http://www.w3.org/1999/xlink" x="0px" y="0px"
	 viewBox="0 0 512 512" style="enable-background:new 0 0 512 512;" xml:space="preserve">
<path style="fill:#00CE96;" d="M6.181,110.858h363.104c3.414,0,6.181,2.767,6.181,6.181v175.675c0,3.414-2.767,6.181-6.181,6.181
	H6.181c-3.414,0-6.181-2.767-6.181-6.181V117.039C0,113.626,2.767,110.858,6.181,110.858z"/>
<path style="fill:#00F2B0;" d="M315.734,136.766H59.735c0,18.851-15.282,34.133-34.133,34.133v68.268
	c18.851,0,34.133,15.282,34.133,34.134h255.999c0-18.851,15.282-34.134,34.133-34.134v-68.268
	C331.016,170.899,315.734,155.617,315.734,136.766z"/>
<circle style="fill:#00CE96;" cx="187.73" cy="205.037" r="42.67"/>
<g>
	<circle style="fill:#00BA88;" cx="93.87" cy="205.037" r="17.067"/>
	<circle style="fill:#00BA88;" cx="281.6" cy="205.037" r="17.067"/>
	<path style="fill:#00BA88;" d="M369.285,110.858h-20.604c3.414,0,6.181,2.767,6.181,6.181v175.675c0,3.414-2.767,6.181-6.181,6.181
		h20.604c3.414,0,6.181-2.767,6.181-6.181V117.039C375.466,113.625,372.699,110.858,369.285,110.858z"/>
</g>
<path style="fill:#00BCE7;" d="M483.331,165.207c-3.018-3.017-7.911-3.018-10.926-0.001l-3.918,3.917
	c-0.824-31.778-26.912-57.381-58.886-57.381c-4.268,0-7.726,3.458-7.726,7.726c0,4.268,3.458,7.726,7.726,7.726
	c23.426,0,42.572,18.628,43.431,41.849l-3.837-3.836c-3.016-3.016-7.909-3.017-10.926,0.001c-3.017,3.017-3.017,7.91,0.001,10.926
	l17.062,17.06c0.182,0.182,0.375,0.355,0.575,0.52c0.077,0.064,0.16,0.118,0.24,0.179c0.122,0.092,0.241,0.185,0.368,0.27
	c0.102,0.068,0.208,0.127,0.313,0.19c0.111,0.067,0.22,0.137,0.336,0.199c0.109,0.058,0.22,0.107,0.332,0.16
	c0.117,0.056,0.233,0.114,0.352,0.164c0.109,0.045,0.22,0.081,0.332,0.122c0.127,0.045,0.252,0.095,0.382,0.134
	c0.111,0.033,0.224,0.058,0.335,0.087c0.132,0.034,0.263,0.07,0.398,0.097c0.132,0.026,0.264,0.041,0.397,0.061
	c0.116,0.018,0.232,0.039,0.349,0.05c0.253,0.025,0.508,0.038,0.762,0.038c0.254,0,0.509-0.013,0.762-0.038
	c0.118-0.011,0.233-0.034,0.349-0.05c0.132-0.019,0.265-0.034,0.397-0.061c0.135-0.027,0.265-0.064,0.398-0.097
	c0.112-0.029,0.225-0.053,0.336-0.087c0.13-0.039,0.255-0.088,0.382-0.134c0.11-0.04,0.221-0.076,0.331-0.122
	c0.121-0.049,0.236-0.108,0.353-0.164c0.11-0.053,0.223-0.101,0.331-0.16c0.115-0.062,0.225-0.131,0.336-0.199
	c0.105-0.063,0.211-0.122,0.313-0.19c0.127-0.084,0.246-0.178,0.368-0.27c0.079-0.061,0.162-0.115,0.24-0.179
	c0.2-0.164,0.393-0.337,0.575-0.52l17.062-17.06C486.348,173.117,486.348,168.224,483.331,165.207z"/>
<path style="fill:#FF2551;" d="M85.336,384.805c-23.426,0-42.573-18.628-43.432-41.849l3.837,3.836
	c1.508,1.508,3.486,2.262,5.463,2.262c1.977,0,3.955-0.754,5.464-2.263c3.017-3.017,3.017-7.91-0.001-10.926l-17.062-17.06
	c-0.182-0.182-0.374-0.355-0.574-0.519c-0.078-0.065-0.162-0.121-0.242-0.181c-0.121-0.091-0.24-0.184-0.366-0.269
	c-0.101-0.068-0.207-0.127-0.31-0.189c-0.112-0.068-0.223-0.138-0.339-0.2c-0.105-0.057-0.214-0.104-0.322-0.156
	c-0.121-0.058-0.24-0.117-0.364-0.169c-0.103-0.042-0.209-0.076-0.314-0.114c-0.133-0.048-0.264-0.099-0.4-0.14
	c-0.103-0.031-0.207-0.054-0.31-0.079c-0.14-0.036-0.28-0.075-0.423-0.103c-0.114-0.023-0.229-0.035-0.343-0.053
	c-0.135-0.021-0.268-0.045-0.405-0.059c-0.191-0.019-0.382-0.025-0.574-0.029c-0.062-0.001-0.122-0.009-0.183-0.009
	s-0.122,0.008-0.183,0.009c-0.192,0.004-0.382,0.01-0.573,0.029c-0.137,0.013-0.27,0.038-0.405,0.059
	c-0.114,0.018-0.23,0.03-0.343,0.053c-0.143,0.028-0.282,0.067-0.423,0.103c-0.104,0.027-0.208,0.048-0.31,0.079
	c-0.136,0.041-0.267,0.092-0.4,0.139c-0.105,0.038-0.211,0.072-0.315,0.115c-0.124,0.052-0.242,0.111-0.363,0.168
	c-0.108,0.052-0.217,0.099-0.323,0.156c-0.115,0.062-0.226,0.132-0.338,0.2c-0.104,0.063-0.209,0.121-0.31,0.189
	c-0.126,0.084-0.245,0.177-0.366,0.269c-0.08,0.061-0.164,0.116-0.242,0.181c-0.2,0.164-0.391,0.337-0.574,0.519l-17.062,17.06
	c-3.018,3.017-3.018,7.91-0.001,10.926c3.017,3.017,7.91,3.018,10.926,0.001l3.918-3.917c0.824,31.778,26.913,57.382,58.887,57.382
	c4.268,0,7.726-3.459,7.726-7.726C93.062,388.264,89.604,384.805,85.336,384.805z"/>
<path style="fill:#00BA88;" d="M122.077,192.502c-3.414,0-6.181,2.767-6.181,6.181v100.213h253.39c3.414,0,6.181-2.767,6.181-6.181
	V192.502H122.077z"/>
<path style="fill:#00CE96;" d="M142.714,213.105h363.105c3.414,0,6.181,2.767,6.181,6.181v175.675c0,3.414-2.767,6.181-6.181,6.181
	H142.714c-3.414,0-6.181-2.767-6.181-6.181V219.286C136.533,215.872,139.301,213.105,142.714,213.105z"/>
<path style="fill:#00F2B0;" d="M452.267,239.012H196.269c0,18.851-15.282,34.133-34.133,34.133v68.268
	c18.851,0,34.133,15.282,34.133,34.133h255.999c0-18.851,15.282-34.133,34.133-34.133v-68.268
	C467.55,273.146,452.267,257.864,452.267,239.012z"/>
<circle style="fill:#00CE96;" cx="324.27" cy="307.282" r="42.67"/>
<g>
	<circle style="fill:#00BA88;" cx="230.4" cy="307.282" r="17.067"/>
	<circle style="fill:#00BA88;" cx="418.13" cy="307.282" r="17.067"/>
	<path style="fill:#00BA88;" d="M505.819,213.105h-20.604c3.414,0,6.181,2.767,6.181,6.181v175.675c0,3.414-2.767,6.181-6.181,6.181
		h20.604c3.414,0,6.181-2.767,6.181-6.181V219.286C512,215.872,509.233,213.105,505.819,213.105z"/>
</g>
<g>
</g>
<g>
</g>
<g>
</g>
<g>
</g>
<g>
</g>
<g>
</g>
<g>
</g>
<g>
</g>
<g>
</g>
<g>
</g>
<g>
</g>
<g>
</g>
<g>
</g>
<g>
</g>
<g>
</g>
</svg>
