<?xml version="1.0" encoding="iso-8859-1"?>
<!-- Generator: Adobe Illustrator 19.0.0, SVG Export Plug-In . SVG Version: 6.00 Build 0)  -->
<svg version="1.1" id="Capa_1" xmlns="http://www.w3.org/2000/svg" xmlns:xlink="http://www.w3.org/1999/xlink" x="0px" y="0px"
	 viewBox="0 0 511.999 511.999" style="enable-background:new 0 0 511.999 511.999;" xml:space="preserve">
<path style="fill:#00BCE7;" d="M383.946,432.461c-40.088,30.025-89.875,47.809-143.814,47.809C107.511,480.27,0,372.759,0,240.138
	S107.511,0.006,240.133,0.006s240.133,107.511,240.133,240.133c0,53.937-17.782,103.72-47.805,143.808"/>
<path style="fill:#B6E3EE;" d="M365.575,194.391c0.103-0.651,0.121-1.314,0.057-1.969c-2.234-22.542-6.085-44.282-11.353-64.585
	h98.144c-2.808-5.298-5.807-10.478-8.991-15.53h-93.55c-7.034-22.894-15.951-43.584-26.451-61.02
	c-13.361-22.185-28.984-38.551-45.783-48.358c-12.224-1.917-24.751-2.924-37.515-2.924c-12.882,0-25.522,1.027-37.855,2.98
	c-20.38,11.956-38.874,33.649-53.99,63.881c-6.945,13.89-12.949,29.144-17.963,45.44h-93.49c-3.184,5.052-6.183,10.232-8.991,15.53
	h98.086c-8.322,32.098-12.986,67.632-13.56,104.536H0.138C0.056,234.952,0,237.539,0,240.138s0.056,5.185,0.138,7.765h112.23
	c0.575,36.905,5.239,72.437,13.56,104.536H27.843c2.808,5.298,5.807,10.478,8.991,15.53h93.49
	c5.014,16.296,11.018,31.55,17.963,45.441c15.116,30.232,33.611,51.925,53.99,63.88c12.332,1.954,24.973,2.98,37.854,2.98
	c12.85,0,25.459-1.021,37.762-2.964c19.631-11.503,37.547-32.027,52.342-60.484c0.387-0.745,0.651-1.548,0.782-2.378l7.298-46.476
	h105.127c3.184-5.054,6.186-10.232,8.994-15.53H340.754l16.417-104.536h122.957c0.082-2.579,0.136-5.165,0.136-7.765
	c0-2.6-0.056-5.186-0.138-7.765H359.61L365.575,194.391z M232.368,471.935c-26.128-3.8-50.808-26.705-70.19-65.47
	c-5.921-11.842-11.124-24.749-15.58-38.495h85.77L232.368,471.935L232.368,471.935z M232.368,352.439H141.98
	c-8.637-31.809-13.485-67.407-14.08-104.536h104.467v104.536H232.368z M232.368,232.373H127.901
	c0.594-37.128,5.443-72.727,14.08-104.536h90.388v104.536H232.368z M232.368,112.307h-85.769
	c4.456-13.746,9.659-26.653,15.579-38.495c19.383-38.766,44.062-61.671,70.19-65.47L232.368,112.307L232.368,112.307z
	 M247.898,8.363c22.439,3.356,44.282,21.137,62.229,50.935c9.174,15.234,17.078,33.166,23.49,53.008h-85.718V8.363H247.898z
	 M315.874,410.772c-19.031,36.11-42.897,57.492-67.976,61.164V367.969h74.698L315.874,410.772z M325.035,352.439h-77.137V247.904
	h93.553L325.035,352.439z M343.889,232.373h-95.992V127.837h90.331c5.509,20.309,9.531,42.262,11.85,65.132L343.889,232.373z"/>
<path style="fill:#0094D4;" d="M240.133,0.006c-3.47,0-6.919,0.091-10.353,0.237c127.816,5.424,229.779,110.745,229.779,239.896
	c0,53.937-17.782,103.72-47.805,143.808l-48.513,48.515c-37.469,28.064-83.413,45.43-133.3,47.579
	c3.381,0.142,6.777,0.23,10.193,0.23c53.94,0,103.725-17.785,143.814-47.81l48.513-48.515
	c30.022-40.088,47.805-89.87,47.805-143.808C480.264,107.516,372.754,0.006,240.133,0.006z"/>
<g>
	<path style="fill:#96D2E0;" d="M431.731,352.439c-2.808,5.298-5.81,10.477-8.995,15.53h20.707c0.013-0.022,0.027-0.043,0.04-0.065
		c3.162-5.021,6.145-10.167,8.935-15.43c0.006-0.011,0.012-0.023,0.019-0.035L431.731,352.439L431.731,352.439z"/>
	<path style="fill:#96D2E0;" d="M480.127,232.373H459.42c0.082,2.579,0.138,5.165,0.138,7.765c0,2.599-0.054,5.186-0.136,7.765
		h20.707v-0.004c0.039-1.227,0.07-2.457,0.094-3.688c0.023-1.356,0.041-2.713,0.041-4.073c0-1.58-0.029-3.153-0.06-4.725
		C480.183,234.398,480.159,233.384,480.127,232.373z"/>
</g>
<g>
	<path style="fill:#E6E6E6;" d="M288.053,9.979c-3.411-2.629-6.881-4.992-10.406-7.05c-1.138-0.178-2.281-0.341-3.425-0.504
		c-0.615-0.087-1.23-0.176-1.847-0.259c-1.074-0.144-2.149-0.282-3.227-0.411c-0.736-0.089-1.475-0.171-2.214-0.254
		c-1.002-0.112-2.003-0.226-3.009-0.325c-1.617-0.159-3.238-0.305-4.864-0.432c-0.717-0.056-1.439-0.098-2.159-0.148
		c-1.152-0.08-2.305-0.156-3.462-0.219c-0.724-0.039-1.448-0.074-2.173-0.107c-1.233-0.056-2.469-0.104-3.708-0.141
		c-0.618-0.019-1.234-0.04-1.853-0.055c-1.853-0.042-3.711-0.07-5.575-0.07c-3.471,0-6.919,0.091-10.354,0.237
		C249.948,1.098,269.47,4.447,288.053,9.979z"/>
	<path style="fill:#E6E6E6;" d="M247.498,480.147c0.789-0.024,1.58-0.041,2.368-0.074c1.12-0.045,2.236-0.106,3.352-0.166
		c0.47-0.025,0.941-0.044,1.41-0.072c1.315-0.079,2.625-0.173,3.933-0.272c0.257-0.02,0.516-0.035,0.772-0.056
		c1.441-0.115,2.877-0.243,4.311-0.383c0.118-0.011,0.236-0.022,0.354-0.033c1.522-0.151,3.041-0.316,4.555-0.495
		c0.026-0.003,0.052-0.006,0.078-0.009c3.106-0.369,6.194-0.796,9.264-1.281c3.515-2.06,6.973-4.422,10.371-7.054
		c-18.597,5.555-38.138,8.919-58.326,9.788c3.381,0.142,6.777,0.23,10.193,0.23c1.638,0,3.273-0.018,4.902-0.051
		C245.858,480.204,246.677,480.172,247.498,480.147z"/>
</g>
<path style="fill:#96D2E0;" d="M431.724,127.837h20.698c-2.808-5.298-5.807-10.478-8.991-15.53h-20.709
	C425.908,117.36,428.914,122.538,431.724,127.837z"/>
<rect x="369.335" y="375.69" transform="matrix(-0.7071 -0.7071 0.7071 -0.7071 392.8622 948.4089)" style="fill:#49484D;" width="47.035" height="34.301"/>
<circle style="fill:#58565C;" cx="296.255" cy="296.255" r="120.069"/>
<circle style="fill:#B6E3EE;" cx="296.255" cy="296.255" r="85.758"/>
<path style="fill:#96D2E0;" d="M356.898,235.614c-19.385-19.385-45.738-27.526-70.995-24.47
	c18.381,2.223,36.181,10.364,50.288,24.47c33.491,33.491,33.491,87.792,0,121.284c-14.107,14.107-31.907,22.248-50.288,24.47
	c25.257,3.055,51.611-5.086,70.995-24.47C390.39,323.406,390.39,269.105,356.898,235.614z"/>
<path style="fill:#985335;" d="M510.176,470.447l-39.728,39.728c-2.426,2.426-6.359,2.426-8.785,0l-76.114-76.114
	c-2.426-2.426-2.426-6.359,0-8.785l39.728-39.728c2.426-2.426,6.359-2.426,8.785,0l76.114,76.114
	C512.602,464.088,512.602,468.021,510.176,470.447z"/>
<path style="fill:#87462A;" d="M425.281,385.543l-14.642,14.642c2.426-2.426,6.359-2.426,8.785,0l76.114,76.114
	c2.426,2.426,2.426,6.359,0,8.785l14.642-14.642c2.426-2.426,2.426-6.359,0-8.785l-76.115-76.115
	C431.64,383.117,427.707,383.117,425.281,385.543z"/>
<polygon style="fill:#FFD151;" points="448.433,399.918 448.432,399.919 399.919,448.431 399.918,448.432 410.9,459.414 
	410.901,459.414 459.415,410.901 459.415,410.901 "/>
<polygon style="fill:#F79B4A;" points="448.433,399.918 448.432,399.919 433.795,414.555 444.777,425.538 459.415,410.901 
	459.415,410.901 "/>
<g>
</g>
<g>
</g>
<g>
</g>
<g>
</g>
<g>
</g>
<g>
</g>
<g>
</g>
<g>
</g>
<g>
</g>
<g>
</g>
<g>
</g>
<g>
</g>
<g>
</g>
<g>
</g>
<g>
</g>
</svg>
