<?xml version="1.0" encoding="iso-8859-1"?>
<!-- Generator: Adobe Illustrator 19.0.0, SVG Export Plug-In . SVG Version: 6.00 Build 0)  -->
<svg version="1.1" id="Capa_1" xmlns="http://www.w3.org/2000/svg" xmlns:xlink="http://www.w3.org/1999/xlink" x="0px" y="0px"
	 viewBox="0 0 512.001 512.001" style="enable-background:new 0 0 512.001 512.001;" xml:space="preserve">
<path style="fill:#96D2E0;" d="M443.733,119.468V505.82c0,3.414-2.767,6.181-6.181,6.181H74.449c-3.414,0-6.181-2.767-6.181-6.181
	V119.468"/>
<path style="fill:#B6E3EE;" d="M443.733,119.468v290.133l-68.268,68.268H74.449c-3.414,0-6.181-2.767-6.181-6.181V119.469h375.466
	V119.468z"/>
<g>
	<path style="fill:#D0EEF5;" d="M381.647,409.601h62.087l-68.268,68.268v-62.087C375.465,412.368,378.233,409.601,381.647,409.601z"
		/>
	<path style="fill:#D0EEF5;" d="M443.733,170.667l-44.82,16.3c-1.365,0.497-2.86,0.497-4.225,0l-44.823-16.3h0.002l-44.821,16.3
		c-1.365,0.497-2.86,0.497-4.225,0l-44.823-16.3H256l-44.821,16.3c-1.365,0.497-2.86,0.497-4.225,0l-44.823-16.3h0.002l-44.82,16.3
		c-1.365,0.497-2.86,0.497-4.225,0l-44.823-16.3v-51.198h375.468V170.667z"/>
</g>
<path style="fill:#00BCE7;" d="M322.195,327.394c6.226-11.019,9.799-23.726,9.799-37.26c0-13.53-3.571-26.236-9.795-37.252
	c-0.218-0.494-0.489-0.959-0.802-1.392c-13.249-22.335-37.596-37.348-65.396-37.348s-52.147,15.013-65.396,37.348
	c-0.312,0.433-0.583,0.897-0.801,1.392c-6.224,11.017-9.795,23.722-9.795,37.252c0,13.533,3.573,26.242,9.8,37.26
	c0.216,0.489,0.484,0.949,0.793,1.378c13.249,22.338,37.599,37.354,65.4,37.354c27.802,0,52.151-15.016,65.4-37.354
	C321.71,328.343,321.977,327.883,322.195,327.394z M256,350.675c-2.111,0-6.747-3.99-10.868-14.982
	c-0.446-1.19-0.867-2.432-1.273-3.699h24.282c-0.406,1.268-0.826,2.51-1.273,3.699C262.747,346.684,258.111,350.675,256,350.675z
	 M240.206,316.541c-0.978-5.876-1.622-12.158-1.906-18.68h35.4c-0.284,6.523-0.928,12.804-1.906,18.68H240.206z M256,229.594
	c2.111,0,6.747,3.99,10.868,14.981c0.446,1.19,0.866,2.43,1.273,3.698H243.86c0.406-1.267,0.826-2.508,1.272-3.698
	C249.254,233.584,253.89,229.594,256,229.594z M271.795,263.726c0.978,5.876,1.622,12.158,1.906,18.68h-35.4
	c0.284-6.522,0.928-12.804,1.906-18.68H271.795z M316.038,282.464c-0.298-0.035-0.599-0.058-0.906-0.058h-25.97
	c-0.263-6.352-0.853-12.638-1.759-18.68h23.064C313.287,269.518,315.195,275.827,316.038,282.464z M222.838,282.407h-25.97
	c-0.307,0-0.608,0.023-0.906,0.058c0.844-6.637,2.752-12.946,5.571-18.738h23.064C223.691,269.769,223.102,276.055,222.838,282.407z
	 M195.964,297.803c0.298,0.035,0.599,0.058,0.906,0.058h25.97c0.263,6.352,0.853,12.638,1.759,18.68h-23.064
	C198.714,310.749,196.806,304.44,195.964,297.803z M289.163,297.859h25.97c0.307,0,0.608-0.023,0.906-0.058
	c-0.844,6.637-2.751,12.946-5.57,18.738h-23.064C288.31,310.498,288.9,304.212,289.163,297.859z M299.674,248.274h-15.455
	c-1.372-5.084-3.018-9.803-4.935-14.017C287.027,237.496,293.95,242.305,299.674,248.274z M232.716,234.257
	c-1.916,4.213-3.562,8.933-4.935,14.017h-15.455C218.052,242.305,224.975,237.496,232.716,234.257z M212.326,331.993h15.456
	c1.372,5.084,3.018,9.804,4.935,14.018C224.974,342.772,218.051,337.963,212.326,331.993z M279.285,346.011
	c1.916-4.213,3.562-8.934,4.935-14.018h15.456C293.951,337.963,287.027,342.772,279.285,346.011z"/>
<path style="fill:#58565C;" d="M335.152,426.667H176.849c-3.414,0-6.181-2.767-6.181-6.181v-21.77c0-3.414,2.767-6.181,6.181-6.181
	h158.304c3.414,0,6.181,2.767,6.181,6.181v21.77C341.333,423.899,338.566,426.667,335.152,426.667z"/>
<path style="fill:#00BCE7;" d="M392.536,42.667h51.198c9.425,0,17.066,7.641,17.066,17.066v68.269
	c0,9.425-7.641,17.066-17.066,17.066H68.268c-9.425,0-17.066-7.641-17.066-17.066V59.733c0-9.425,7.641-17.066,17.066-17.066h51.199
	H392.536z"/>
<g>
	<path style="fill:#FFD151;" d="M119.468,68.267c0,9.426,7.641,17.067,17.067,17.067s17.067-7.641,17.067-17.067v-51.2
		c-0.001-9.425-7.642-17.066-17.067-17.066s-17.067,7.641-17.067,17.067C119.468,17.068,119.468,68.267,119.468,68.267z"/>
	<path style="fill:#FFD151;" d="M358.402,68.267c0,9.426,7.641,17.067,17.067,17.067s17.067-7.641,17.067-17.067v-51.2
		C392.536,7.641,384.895,0,375.469,0s-17.067,7.641-17.067,17.067V68.267z"/>
</g>
<path style="fill:#0094D4;" d="M426.665,111.742H85.333c-4.268,0-7.726,3.459-7.726,7.726s3.458,7.726,7.726,7.726h341.332
	c4.268,0,7.726-3.459,7.726-7.726S430.934,111.742,426.665,111.742z"/>
<g>
	<path style="fill:#F79B4A;" d="M136.535,64.73c-9.426,0-17.067-7.641-17.067-17.067v20.604c0,9.426,7.641,17.067,17.067,17.067
		c9.425,0,17.067-7.641,17.067-17.067V47.663C153.601,57.09,145.96,64.73,136.535,64.73z"/>
	<path style="fill:#F79B4A;" d="M375.469,64.73c-9.426,0-17.067-7.641-17.067-17.067v20.604c0,9.426,7.641,17.067,17.067,17.067
		c9.425,0,17.067-7.641,17.067-17.067V47.663C392.536,57.09,384.895,64.73,375.469,64.73z"/>
</g>
<path style="fill:#0094D4;" d="M443.733,42.667H423.13c9.425,0,17.066,7.641,17.066,17.066v68.269
	c0,9.425-7.641,17.066-17.066,17.066h20.604c9.425,0,17.066-7.641,17.066-17.066V59.733
	C460.799,50.308,453.159,42.667,443.733,42.667z"/>
<g>
</g>
<g>
</g>
<g>
</g>
<g>
</g>
<g>
</g>
<g>
</g>
<g>
</g>
<g>
</g>
<g>
</g>
<g>
</g>
<g>
</g>
<g>
</g>
<g>
</g>
<g>
</g>
<g>
</g>
</svg>
