<?xml version="1.0" encoding="iso-8859-1"?>
<!-- Generator: Adobe Illustrator 19.0.0, SVG Export Plug-In . SVG Version: 6.00 Build 0)  -->
<svg version="1.1" id="Capa_1" xmlns="http://www.w3.org/2000/svg" xmlns:xlink="http://www.w3.org/1999/xlink" x="0px" y="0px"
	 viewBox="0 0 512 512" style="enable-background:new 0 0 512 512;" xml:space="preserve">
<path style="fill:#58565C;" d="M366.934,17.066c0-9.425-7.64-17.066-17.065-17.066c-9.425,0-17.066,7.641-17.066,17.066v24.656
	h34.133L366.934,17.066z"/>
<rect x="332.8" y="20.861" style="fill:#49484D;" width="34.13" height="20.861"/>
<path style="fill:#B6E3EE;" d="M119.466,76.8c0-14.139,11.462-25.601,25.601-25.601L375.468,51.2h34.133
	c9.425,0,17.066,7.641,17.066,17.066v51.201H119.465L119.466,76.8z"/>
<path style="fill:#96D2E0;" d="M409.601,51.201h-20.603c9.425,0,17.065,7.641,17.065,17.066v51.201h20.604V68.267
	C426.667,58.841,419.026,51.201,409.601,51.201z"/>
<path style="fill:#FFD151;" d="M324.268,107.655V40.313c0-3.414,2.767-6.181,6.181-6.181h38.841c3.414,0,6.181,2.767,6.181,6.181
	v67.341h-51.203V107.655z"/>
<path style="fill:#F79B4A;" d="M369.29,34.132h-20.574c3.414,0,6.181,2.767,6.181,6.181v67.341h20.573V40.313
	C375.47,36.9,372.703,34.132,369.29,34.132z"/>
<path style="fill:#00BCE7;" d="M119.466,76.8c0,14.139,11.462,25.601,25.601,25.601v-0.003h264.534
	c9.425,0,17.066,7.641,17.066,17.066v375.47c0,9.425-7.641,17.066-17.066,17.066H136.532c-9.425,0-17.066-7.641-17.066-17.066v-51.2
	L119.466,76.8z"/>
<g>
	<path style="fill:#0094D4;" d="M409.601,102.397h-20.604c9.425,0,17.066,7.641,17.066,17.066v375.47
		c0,9.425-7.641,17.066-17.066,17.066h20.604c9.425,0,17.066-7.641,17.066-17.066v-375.47
		C426.667,110.038,419.026,102.397,409.601,102.397z"/>
	<path style="fill:#0094D4;" d="M155.203,102.397h-10.136v0.003c-14.139,0-25.601-11.462-25.601-25.601l-0.001,366.934v51.2
		c0,9.425,7.641,17.066,17.066,17.066h18.671V102.397H155.203z"/>
</g>
<g>
	<path style="fill:#58565C;" d="M145.066,443.733c9.426,0,17.067-7.641,17.067-17.067s-7.641-17.067-17.067-17.067H102.4
		c-9.426,0-17.067,7.641-17.067,17.067s7.641,17.067,17.067,17.067H145.066z"/>
	<path style="fill:#58565C;" d="M145.066,204.796c9.426,0,17.067-7.641,17.067-17.067s-7.641-17.067-17.067-17.067H102.4
		c-9.426,0-17.067,7.641-17.067,17.067s7.641,17.067,17.067,17.067H145.066z"/>
	<path style="fill:#58565C;" d="M145.066,324.264c9.426,0,17.067-7.641,17.067-17.067s-7.641-17.067-17.067-17.067H102.4
		c-9.426,0-17.067,7.641-17.067,17.067s7.641,17.067,17.067,17.067H145.066z"/>
</g>
<g>
	<path style="fill:#FFFFFF;" d="M356.327,276.195c6.226-11.018,9.799-23.726,9.799-37.26c0-13.53-3.571-26.235-9.795-37.251
		c-0.218-0.496-0.489-0.96-0.803-1.395c-13.249-22.335-37.597-37.347-65.396-37.347c-27.798,0-52.146,15.013-65.396,37.347
		c-0.313,0.434-0.584,0.899-0.803,1.395c-6.224,11.017-9.795,23.721-9.795,37.251c0,13.533,3.573,26.241,9.799,37.26
		c0.217,0.489,0.485,0.95,0.794,1.379c13.248,22.338,37.597,37.354,65.4,37.354c27.802,0,52.152-15.016,65.4-37.354
		C355.843,277.144,356.11,276.684,356.327,276.195z M290.133,299.476c-2.11,0-6.746-3.99-10.868-14.982
		c-0.446-1.19-0.866-2.432-1.273-3.699h24.282c-0.406,1.268-0.827,2.51-1.273,3.699C296.88,295.486,292.244,299.476,290.133,299.476
		z M274.339,265.343c-0.978-5.876-1.622-12.158-1.906-18.681h35.401c-0.284,6.523-0.928,12.805-1.906,18.681H274.339z
		 M290.133,178.395c2.111,0,6.747,3.99,10.868,14.982c0.446,1.19,0.866,2.43,1.273,3.698h-24.281
		c0.406-1.267,0.826-2.508,1.272-3.698C283.387,182.385,288.023,178.395,290.133,178.395z M305.928,212.527
		c0.978,5.876,1.622,12.158,1.906,18.681h-35.4c0.284-6.523,0.928-12.805,1.906-18.681H305.928z M350.171,231.266
		c-0.298-0.035-0.599-0.058-0.906-0.058h-25.97c-0.263-6.353-0.853-12.638-1.759-18.681H344.6
		C347.419,218.319,349.327,224.628,350.171,231.266z M256.971,231.209h-25.97c-0.307,0-0.608,0.023-0.906,0.058
		c0.844-6.637,2.752-12.947,5.571-18.739h23.063C257.824,218.57,257.234,224.856,256.971,231.209z M230.096,246.604
		c0.298,0.035,0.599,0.058,0.906,0.058h25.97c0.263,6.353,0.853,12.638,1.759,18.681h-23.064
		C232.847,259.55,230.939,253.241,230.096,246.604z M323.296,246.661h25.97c0.307,0,0.608-0.023,0.906-0.058
		c-0.844,6.637-2.751,12.946-5.57,18.739h-23.064C322.444,259.3,323.033,253.013,323.296,246.661z M333.806,197.075h-15.455
		c-1.372-5.084-3.018-9.803-4.935-14.017C321.16,186.297,328.083,191.106,333.806,197.075z M266.849,183.058
		c-1.916,4.213-3.561,8.933-4.935,14.017h-15.454C252.184,191.105,259.107,186.297,266.849,183.058z M246.459,280.795h15.456
		c1.372,5.084,3.018,9.804,4.935,14.018C259.106,291.574,252.183,286.765,246.459,280.795z M313.418,294.813
		c1.916-4.213,3.562-8.934,4.935-14.018h15.456C328.084,286.765,321.161,291.574,313.418,294.813z"/>
	<path style="fill:#FFFFFF;" d="M360.754,392.537H219.513c-3.414,0-6.181-2.767-6.181-6.181v-21.772
		c0-3.414,2.767-6.181,6.181-6.181h141.241c3.414,0,6.181,2.767,6.181,6.181v21.772C366.935,389.77,364.168,392.537,360.754,392.537
		z"/>
</g>
<path style="fill:#F2F2F2;" d="M360.754,358.403H340.15c3.414,0,6.181,2.767,6.181,6.181v21.772c0,3.414-2.767,6.181-6.181,6.181
	h20.604c3.414,0,6.181-2.767,6.181-6.181v-21.772C366.935,361.171,364.168,358.403,360.754,358.403z"/>
<path style="fill:#58565C;" d="M349.869,60.541c-4.267,0-7.726,3.459-7.726,7.726v68.267c0,4.267,3.459,7.726,7.726,7.726
	s7.726-3.459,7.726-7.726V68.267C357.595,64,354.136,60.541,349.869,60.541z"/>
<g>
	<path style="fill:#49484D;" d="M145.066,170.662h-20.604c9.426,0,17.067,7.641,17.067,17.067s-7.641,17.067-17.067,17.067h20.604
		c9.426,0,17.067-7.641,17.067-17.067C162.133,178.304,154.492,170.662,145.066,170.662z"/>
	<path style="fill:#49484D;" d="M145.066,290.136h-20.604c9.426,0,17.067,7.641,17.067,17.067c0,9.426-7.641,17.067-17.067,17.067
		h20.604c9.426,0,17.067-7.641,17.067-17.067C162.133,297.777,154.492,290.136,145.066,290.136z"/>
	<path style="fill:#49484D;" d="M145.066,409.599h-20.604c9.426,0,17.067,7.641,17.067,17.067s-7.641,17.067-17.067,17.067h20.604
		c9.426,0,17.067-7.641,17.067-17.067C162.133,417.241,154.492,409.599,145.066,409.599z"/>
</g>
<g>
</g>
<g>
</g>
<g>
</g>
<g>
</g>
<g>
</g>
<g>
</g>
<g>
</g>
<g>
</g>
<g>
</g>
<g>
</g>
<g>
</g>
<g>
</g>
<g>
</g>
<g>
</g>
<g>
</g>
</svg>
