<svg xmlns="http://www.w3.org/2000/svg" viewBox="0 0 64 64" width="64" height="64"><radialGradient id="VfqhqStZ0BpDq0NwaPyBva" cx="-160.127" cy="35.569" r="50.261" gradientTransform="matrix(-1 0 0 1 -128 0)" gradientUnits="userSpaceOnUse" spreadMethod="reflect"><stop offset="0" stop-color="#f4e9c3"/><stop offset=".219" stop-color="#f8eecd"/><stop offset=".644" stop-color="#fdf4dc"/><stop offset="1" stop-color="#fff6e1"/></radialGradient><path fill="url(#VfqhqStZ0BpDq0NwaPyBva)" d="M5.5,38h-2C1.575,38,0,36.425,0,34.5S1.575,31,3.5,31H10c1.1,0,2-0.9,2-2c0-1.1-0.9-2-2-2H4.5 C2.575,27,1,25.425,1,23.5S2.575,20,4.5,20H5c1.105,0,2-0.895,2-2c0-1.105-0.895-2-2-2H3c-1.848,0-3.319-1.693-2.94-3.605 C0.343,10.972,1.68,10,3.131,10H11c0.828,0,1.5-0.672,1.5-1.5S11.828,7,11,7H7.588C6.449,7,5.386,6.279,5.091,5.179 C4.645,3.516,5.904,2,7.5,2H30h1.5h24C57.425,2,59,3.575,59,5.5S57.425,9,55.5,9H54c-1.105,0-2,0.895-2,2c0,1.105,0.895,2,2,2 l5.385,0c1.67,0,3.195,1.122,3.537,2.757C63.392,18.002,61.668,20,59.5,20H52l3,12l5.385,0c1.67,0,3.195,1.122,3.537,2.757 C64.392,37.002,62.668,39,60.5,39H60c-1.105,0-2,0.895-2,2c0,1.105,0.895,2,2,2h0.5c2.168,0,3.892,1.998,3.422,4.243 C63.58,48.878,62.055,50,60.385,50H55c-1.105,0-2,0.895-2,2c0,1.105,0.895,2,2,2l1.385,0c1.67,0,3.195,1.122,3.537,2.757 C60.392,59.002,58.668,61,56.5,61H33.006H31.5H30H8c-1.657,0-3-1.343-3-3s1.343-3,3-3h0.5c1.381,0,2.5-1.119,2.5-2.5 c0-1.381-1.119-2.5-2.5-2.5h-3C3.575,50,2,48.425,2,46.5S3.575,43,5.5,43C6.875,43,8,41.875,8,40.5S6.875,38,5.5,38z"/><radialGradient id="VfqhqStZ0BpDq0NwaPyBvb" cx="32" cy="31" r="23" gradientUnits="userSpaceOnUse" spreadMethod="reflect"><stop offset="0" stop-color="#e7faff"/><stop offset=".273" stop-color="#ecfbff"/><stop offset="1" stop-color="#f6feff"/></radialGradient><path fill="url(#VfqhqStZ0BpDq0NwaPyBvb)" d="M32 8A23 23 0 1 0 32 54A23 23 0 1 0 32 8Z"/><linearGradient id="VfqhqStZ0BpDq0NwaPyBvc" x1="32" x2="32" y1="6" y2="56" gradientUnits="userSpaceOnUse" spreadMethod="reflect"><stop offset="0" stop-color="#42d778"/><stop offset=".996" stop-color="#34b171"/></linearGradient><path fill="url(#VfqhqStZ0BpDq0NwaPyBvc)" d="M32.5,6C31.119,6,30,7.119,30,8.5c0,1.381,1.119,2.5,2.5,2.5C43.296,11.269,52,20.141,52,31 c0,11.028-8.972,20-20,20c-10.859,0-19.731-8.704-20-19.5c0-1.381-1.119-2.5-2.5-2.5S7,30.119,7,31.5C7.268,45.054,18.383,56,32,56 c13.785,0,25-11.215,25-25C57,17.383,46.054,6.268,32.5,6z"/><linearGradient id="VfqhqStZ0BpDq0NwaPyBvd" x1="20.5" x2="20.5" y1="31" y2="11.886" gradientUnits="userSpaceOnUse" spreadMethod="reflect"><stop offset="0" stop-color="#a9e3c7"/><stop offset="1" stop-color="#b0f0ca"/></linearGradient><path fill="url(#VfqhqStZ0BpDq0NwaPyBvd)" d="M20,12l-0.795-0.114C13.051,16.014,9,23.033,9,31h23L20,12z"/><linearGradient id="VfqhqStZ0BpDq0NwaPyBve" x1="29" x2="29" y1="22" y2="33" gradientUnits="userSpaceOnUse" spreadMethod="reflect"><stop offset="0" stop-color="#a4a4a4"/><stop offset=".619" stop-color="gray"/><stop offset="1" stop-color="#6f6f6f"/><stop offset="1" stop-color="#6f6f6f"/></linearGradient><path fill="url(#VfqhqStZ0BpDq0NwaPyBve)" d="M17,31c0-1.105,0.895-2,2-2h12.277c0.085-0.147,0.183-0.288,0.309-0.414l6-6 c0.781-0.781,2.047-0.781,2.828,0c0.781,0.781,0.781,2.047,0,2.828l-5.43,5.43C34.988,30.896,35,30.947,35,31c0,1.105-0.895,2-2,2 H19C17.895,33,17,32.105,17,31z"/><linearGradient id="VfqhqStZ0BpDq0NwaPyBvf" x1="32" x2="32" y1="27" y2="35" gradientUnits="userSpaceOnUse" spreadMethod="reflect"><stop offset="0" stop-color="#a4a4a4"/><stop offset=".619" stop-color="gray"/><stop offset="1" stop-color="#6f6f6f"/><stop offset="1" stop-color="#6f6f6f"/></linearGradient><path fill="url(#VfqhqStZ0BpDq0NwaPyBvf)" d="M32 27A4 4 0 1 0 32 35A4 4 0 1 0 32 27Z"/><g><linearGradient id="VfqhqStZ0BpDq0NwaPyBvg" x1="32.003" x2="32.003" y1="6" y2="56" gradientUnits="userSpaceOnUse" spreadMethod="reflect"><stop offset="0" stop-color="#42d778"/><stop offset=".996" stop-color="#34b171"/></linearGradient><path fill="url(#VfqhqStZ0BpDq0NwaPyBvg)" d="M32,56C18.512,56,7.3,45.034,7.007,31.555c-0.03-1.381,1.064-2.524,2.444-2.554 C9.47,29,9.488,29,9.507,29c1.355,0,2.469,1.084,2.498,2.445C12.24,42.228,21.21,51,32,51c11.028,0,20-8.972,20-20s-8.972-20-20-20 c-3.607,0-7.142,0.97-10.22,2.805c-1.187,0.706-2.722,0.317-3.428-0.867c-0.707-1.187-0.318-2.721,0.867-3.428 C23.072,7.214,27.491,6,32,6c13.785,0,25,11.215,25,25S45.785,56,32,56z"/></g></svg>